<svg xmlns="http://www.w3.org/2000/svg" width="22" height="22" viewBox="0 0 22 22" fill="none">
    <path d="M10.0828 14.5999H9.2373L11.3467 6.49995H12.1931L10.0828 14.5999Z" fill="currentColor"/>
    <path d="M16.2 10.1834V11.3875L12.7714 13.2631V11.8332L15.0583 10.7785L12.7714 9.73784V8.31401L16.2 10.1834Z" fill="currentColor"/>
    <path d="M8.78906 9.74311L6.54521 10.7934L8.78906 11.8226V13.2587L5.4 11.3875V10.1782L8.78906 8.30874V9.74311Z" fill="currentColor"/>
    <path fill-rule="evenodd" clip-rule="evenodd" d="M18.675 1.32495C19.6691 1.32495 20.475 2.13084 20.475 3.12495V18.875C20.475 19.8691 19.6691 20.6749 18.675 20.6749H2.925L2.74131 20.6653C1.8335 20.5732 1.125 19.807 1.125 18.875V3.12495C1.125 2.19287 1.8335 1.42666 2.74131 1.33462L2.925 1.32495H18.675ZM2.925 2.22495C2.42794 2.22495 2.025 2.62789 2.025 3.12495V18.875C2.025 19.372 2.42794 19.775 2.925 19.775H18.675C19.1721 19.775 19.575 19.372 19.575 18.875V3.12495C19.575 2.62789 19.1721 2.22495 18.675 2.22495H2.925Z" fill="currentColor"/>
</svg>