<svg xmlns="http://www.w3.org/2000/svg" width="22" height="22" viewBox="0 0 22 22" fill="none">
    <path d="M13.1128 11.2958H9.18849C8.18413 11.2968 7.22119 11.6962 6.511 12.4064C5.80081 13.1166 5.40139 14.0795 5.40039 15.0839V20.4751H6.75039V15.0838C6.751 14.4374 7.00806 13.8176 7.46516 13.3605C7.92227 12.9034 8.54205 12.6464 9.18849 12.6457H13.1128C13.7592 12.6463 14.379 12.9034 14.8361 13.3605C15.2932 13.8176 15.5503 14.4374 15.5509 15.0838V20.475H16.9009V15.0838C16.8999 14.0795 16.5005 13.1166 15.7903 12.4064C15.0801 11.6962 14.1172 11.2968 13.1128 11.2958Z" fill="#1C2834"/>
    <path d="M11.1502 10.6208C12.0225 10.6208 12.8752 10.3621 13.6005 9.87747C14.3258 9.39285 14.8911 8.70405 15.2249 7.89816C15.5587 7.09228 15.646 6.2055 15.4758 5.34998C15.3057 4.49446 14.8856 3.70861 14.2688 3.09181C13.652 2.47501 12.8662 2.05497 12.0107 1.88479C11.1551 1.71462 10.2684 1.80196 9.46247 2.13577C8.65658 2.46958 7.96778 3.03486 7.48316 3.76014C6.99855 4.48542 6.73989 5.33812 6.73989 6.2104C6.74119 7.3797 7.20627 8.50073 8.03309 9.32755C8.85991 10.1544 9.98095 10.6195 11.1502 10.6208ZM11.1502 3.15005C11.7555 3.15005 12.3472 3.32954 12.8505 3.66582C13.3538 4.00209 13.746 4.48006 13.9776 5.03926C14.2093 5.59847 14.2699 6.2138 14.1518 6.80745C14.0337 7.4011 13.7422 7.9464 13.3142 8.3744C12.8862 8.8024 12.3409 9.09386 11.7473 9.21195C11.1536 9.33003 10.5383 9.26943 9.97909 9.0378C9.41988 8.80616 8.94192 8.41391 8.60565 7.91064C8.26937 7.40737 8.08989 6.81568 8.08989 6.2104C8.0908 5.39902 8.41352 4.62114 8.98725 4.04741C9.56099 3.47368 10.3389 3.15096 11.1502 3.15005Z" fill="#1C2834"/>
</svg>