<svg width="448" height="216" viewBox="0 0 448 216" fill="none" xmlns="http://www.w3.org/2000/svg">
<rect width="448" height="216" fill="url(#paint0_linear_17363_11504)"/>
<mask id="mask0_17363_11504" style="mask-type:alpha" maskUnits="userSpaceOnUse" x="133" y="18" width="181" height="180">
<rect x="133.818" y="18" width="180" height="180" fill="#D9D9D9"/>
</mask>
<g mask="url(#mask0_17363_11504)">
<path d="M195.931 173.632C187.263 169.887 179.71 164.808 173.272 158.394C166.835 151.981 161.775 144.421 158.092 135.714C154.41 127.007 152.568 117.68 152.568 107.734C152.568 97.7862 154.41 88.4975 158.092 79.8675C161.775 71.2375 166.835 63.7162 173.272 57.3037C179.71 50.89 187.263 45.8612 195.931 42.2175C204.6 38.5725 213.896 36.75 223.818 36.75C233.741 36.75 243.036 38.5725 251.705 42.2175C260.374 45.8612 267.927 50.89 274.365 57.3037C280.802 63.7162 285.862 71.2375 289.545 79.8675C293.227 88.4975 295.068 97.7862 295.068 107.734C295.068 117.68 293.227 127.007 289.545 135.714C285.862 144.421 280.802 151.981 274.365 158.394C267.927 164.808 260.374 169.887 251.705 173.632C243.036 177.378 233.741 179.25 223.818 179.25C213.896 179.25 204.6 177.378 195.931 173.632ZM223.818 171.114C228.482 166.086 232.318 160.629 235.327 154.746C238.337 148.861 240.804 141.966 242.728 134.062H205.025C206.919 141.851 209.371 148.733 212.381 154.708C215.391 160.684 219.203 166.153 223.818 171.114ZM211.92 169.586C208.41 165.029 205.301 159.724 202.595 153.671C199.888 147.618 197.76 141.081 196.213 134.062H166.357C171.155 143.755 177.183 151.409 184.443 157.024C191.703 162.64 200.862 166.827 211.92 169.586ZM235.905 169.472C245.722 167.269 254.597 163.101 262.53 156.966C270.462 150.832 276.712 143.198 281.28 134.062H251.54C249.674 141.101 247.419 147.623 244.775 153.628C242.13 159.632 239.173 164.913 235.905 169.472ZM163.616 125.554H194.655C194.183 122.13 193.881 118.978 193.747 116.098C193.612 113.218 193.545 110.418 193.545 107.696C193.545 104.668 193.631 101.802 193.803 99.1012C193.977 96.3987 194.3 93.4756 194.771 90.3319H163.616C162.693 93.2356 162.04 96.0431 161.655 98.7544C161.271 101.466 161.079 104.446 161.079 107.696C161.079 110.995 161.271 114.058 161.655 116.884C162.04 119.711 162.693 122.601 163.616 125.554ZM203.396 125.554H244.357C244.905 121.775 245.265 118.558 245.439 115.903C245.611 113.249 245.698 110.514 245.698 107.696C245.698 105.005 245.611 102.382 245.439 99.8287C245.265 97.2762 244.905 94.1106 244.357 90.3319H203.396C202.847 94.1106 202.486 97.2762 202.314 99.8287C202.14 102.382 202.053 105.005 202.053 107.696C202.053 110.514 202.14 113.249 202.314 115.903C202.486 118.558 202.847 121.775 203.396 125.554ZM252.866 125.554H284.021C284.943 122.601 285.597 119.711 285.982 116.884C286.366 114.058 286.558 110.995 286.558 107.696C286.558 104.446 286.366 101.466 285.982 98.7544C285.597 96.0431 284.943 93.2356 284.021 90.3319H253.053C253.477 94.4669 253.775 97.8344 253.948 100.434C254.121 103.036 254.208 105.456 254.208 107.696C254.208 110.495 254.102 113.245 253.89 115.946C253.678 118.649 253.337 121.851 252.866 125.554ZM251.424 81.8231H281.28C276.866 72.2356 270.753 64.4106 262.94 58.3481C255.128 52.2856 246.053 48.2831 235.717 46.3406C239.227 51.0619 242.292 56.3625 244.912 62.2425C247.532 68.1225 249.703 74.6494 251.424 81.8231ZM205.025 81.8231H242.915C241.251 74.7644 238.783 68.1056 235.509 61.8469C232.234 55.5869 228.337 50.01 223.818 45.1162C219.578 49.02 215.999 53.8419 213.08 59.5819C210.161 65.3219 207.476 72.7356 205.025 81.8231ZM166.357 81.8231H196.329C197.895 74.8806 199.958 68.5006 202.516 62.6831C205.074 56.8656 208.146 51.4569 211.732 46.4569C201.396 48.4469 192.391 52.4225 184.717 58.3838C177.045 64.3463 170.925 72.1594 166.357 81.8231Z" fill="url(#paint1_radial_17363_11504)"/>
</g>
<defs>
<linearGradient id="paint0_linear_17363_11504" x1="224" y1="0" x2="345.002" y2="219.827" gradientUnits="userSpaceOnUse">
<stop stop-color="#F1F5FC"/>
<stop offset="1" stop-color="#DFE9F1"/>
</linearGradient>
<radialGradient id="paint1_radial_17363_11504" cx="0" cy="0" r="1" gradientTransform="matrix(-71 -200.133 121.114 -91.3923 259.818 201.733)" gradientUnits="userSpaceOnUse">
<stop offset="0.131272" stop-color="#F01ADB"/>
<stop offset="1" stop-color="#9AA9B6"/>
</radialGradient>
</defs>
</svg>
