<svg width="448" height="216" viewBox="0 0 448 216" fill="none" xmlns="http://www.w3.org/2000/svg">
<rect width="448" height="216" fill="url(#paint0_linear_17363_11523)"/>
<mask id="mask0_17363_11523" style="mask-type:alpha" maskUnits="userSpaceOnUse" x="133" y="18" width="181" height="180">
<rect x="133.818" y="18" width="180" height="180" fill="#D9D9D9"/>
</mask>
<g mask="url(#mask0_17363_11523)">
<path d="M277.459 171.75L231.694 125.985L239.857 117.821L285.621 163.586L277.459 171.75ZM169.603 171.75L161.439 163.586L215.31 109.716L192.506 86.9139L188.482 90.9376L181.097 83.4807V98.3364L176.959 102.403L155.67 81.1145L159.81 76.9764H174.78L166.791 69.0582L186.666 49.1101C188.549 47.2739 190.585 46.0051 192.772 45.3039C194.96 44.6014 197.386 44.2501 200.049 44.2501C202.664 44.2501 205.077 44.7095 207.289 45.6282C209.501 46.5457 211.526 47.947 213.362 49.832L196.472 66.6489L205.039 75.2157L200.901 79.2845L223.357 101.668L245.728 79.2976C244.583 77.5764 243.717 75.6776 243.131 73.6014C242.545 71.5239 242.252 69.2739 242.252 66.8514C242.252 60.6589 244.489 55.3245 248.964 50.8482C253.441 46.3732 258.775 44.1357 264.967 44.1357C266.554 44.1357 267.931 44.2751 269.1 44.5539C270.267 44.8326 271.265 45.2601 272.092 45.8364L256.948 60.9095L270.722 74.6832L285.866 59.6101C286.395 60.5151 286.83 61.602 287.171 62.8707C287.512 64.1395 287.683 65.567 287.683 67.1532C287.683 73.3457 285.446 78.6801 280.971 83.1564C276.494 87.6326 271.16 89.8707 264.967 89.8707C262.621 89.8707 260.599 89.6782 258.902 89.2932C257.206 88.9082 255.597 88.2351 254.077 87.2739L169.603 171.75Z" fill="url(#paint1_radial_17363_11523)"/>
</g>
<defs>
<linearGradient id="paint0_linear_17363_11523" x1="224" y1="0" x2="345.002" y2="219.827" gradientUnits="userSpaceOnUse">
<stop stop-color="#F1F5FC"/>
<stop offset="1" stop-color="#DFE9F1"/>
</linearGradient>
<radialGradient id="paint1_radial_17363_11523" cx="0" cy="0" r="1" gradientTransform="matrix(-65.775 -179.227 112.201 -81.8454 255.027 191.885)" gradientUnits="userSpaceOnUse">
<stop offset="0.131272" stop-color="#F01ADB"/>
<stop offset="1" stop-color="#9AA9B6"/>
</radialGradient>
</defs>
</svg>
