<svg width="448" height="216" viewBox="0 0 448 216" fill="none" xmlns="http://www.w3.org/2000/svg">
<g clip-path="url(#clip0_17356_3539)">
<rect width="448" height="216" fill="url(#paint0_linear_17356_3539)"/>
<rect x="42.8359" y="27.3418" width="361.887" height="769.81" rx="42.1989" fill="#3E3E3E"/>
<rect x="45.3935" y="29.8994" width="356.772" height="764.695" rx="40.9201" fill="black"/>
<rect x="45.3935" y="29.8994" width="356.772" height="764.695" rx="40.9201" stroke="url(#paint1_linear_17356_3539)" stroke-width="2.55751"/>
<rect x="53.5024" y="38.8506" width="341.427" height="746.792" rx="34.1244" fill="#E5EDF5"/>
<path d="M39 199.135C39 197.48 40.3419 196.138 41.9972 196.138H42.8363V243.452H41.9972C40.3419 243.452 39 242.11 39 240.454V199.135Z" fill="#0A0A0A"/>
<g opacity="0.4">
<path d="M99.105 105.406C99.105 100.071 99.105 97.4034 100.127 95.3585C101.065 93.4815 102.586 91.9597 104.463 91.0218C106.508 90 109.176 90 114.511 90H150.694C156.029 90 158.697 90 160.742 91.0218C162.619 91.9597 164.141 93.4815 165.079 95.3585C166.1 97.4034 166.1 100.071 166.1 105.406V141.589C166.1 146.924 166.1 149.592 165.079 151.637C164.141 153.514 162.619 155.036 160.742 155.974C158.697 156.995 156.029 156.995 150.694 156.995H114.511C109.176 156.995 106.508 156.995 104.463 155.974C102.586 155.036 101.065 153.514 100.127 151.637C99.105 149.592 99.105 146.924 99.105 141.589V105.406Z" fill="#B5BEC6"/>
</g>
<path d="M190.169 105.406C190.169 100.071 190.169 97.4034 191.191 95.3585C192.129 93.4815 193.651 91.9597 195.528 91.0218C197.573 90 200.24 90 205.576 90H241.759C247.094 90 249.761 90 251.806 91.0218C253.683 91.9597 255.205 93.4815 256.143 95.3585C257.165 97.4034 257.165 100.071 257.165 105.406V141.589C257.165 146.924 257.165 149.592 256.143 151.637C255.205 153.514 253.683 155.036 251.806 155.974C249.761 156.995 247.094 156.995 241.759 156.995H205.576C200.24 156.995 197.573 156.995 195.528 155.974C193.651 155.036 192.129 153.514 191.191 151.637C190.169 149.592 190.169 146.924 190.169 141.589V105.406Z" fill="white"/>
<mask id="mask0_17356_3539" style="mask-type:alpha" maskUnits="userSpaceOnUse" x="199" y="99" width="49" height="48">
<rect x="199.819" y="99" width="48" height="48" fill="#D9D9D9"/>
</mask>
<g mask="url(#mask0_17356_3539)">
<path d="M224.884 133.447C225.2 133.137 225.357 132.761 225.357 132.318C225.357 131.875 225.199 131.496 224.883 131.181C224.567 130.865 224.187 130.708 223.744 130.708C223.302 130.708 222.926 130.866 222.617 131.182C222.308 131.498 222.153 131.878 222.153 132.321C222.153 132.763 222.308 133.139 222.618 133.448C222.928 133.757 223.305 133.911 223.747 133.911C224.19 133.911 224.569 133.757 224.884 133.447ZM222.442 126.973H224.638C224.651 126.042 224.821 125.274 225.148 124.669C225.475 124.064 226.039 123.363 226.841 122.567C227.87 121.545 228.591 120.635 229.005 119.836C229.419 119.038 229.626 118.191 229.626 117.296C229.626 115.632 229.085 114.309 228.003 113.327C226.921 112.345 225.525 111.854 223.815 111.854C222.258 111.854 220.927 112.237 219.822 113.002C218.717 113.767 217.901 114.758 217.373 115.973L219.465 116.861C219.919 115.992 220.493 115.313 221.186 114.823C221.88 114.333 222.748 114.089 223.788 114.089C224.983 114.089 225.889 114.4 226.505 115.023C227.122 115.646 227.43 116.426 227.43 117.364C227.43 118.052 227.25 118.688 226.89 119.273C226.53 119.858 225.961 120.515 225.184 121.246C224.015 122.374 223.266 123.339 222.936 124.141C222.607 124.942 222.442 125.886 222.442 126.973ZM209.703 140C208.919 140 208.242 139.715 207.673 139.146C207.104 138.577 206.819 137.9 206.819 137.115V108.885C206.819 108.1 207.104 107.423 207.673 106.854C208.242 106.285 208.919 106 209.703 106H237.934C238.719 106 239.396 106.285 239.965 106.854C240.534 107.423 240.819 108.1 240.819 108.885V137.115C240.819 137.9 240.534 138.577 239.965 139.146C239.396 139.715 238.719 140 237.934 140H209.703ZM209.703 137.73H237.934C238.088 137.73 238.229 137.667 238.357 137.539C238.485 137.41 238.549 137.269 238.549 137.115V108.885C238.549 108.731 238.485 108.59 238.357 108.461C238.229 108.333 238.088 108.27 237.934 108.27H209.703C209.55 108.27 209.409 108.333 209.28 108.461C209.152 108.59 209.088 108.731 209.088 108.885V137.115C209.088 137.269 209.152 137.41 209.28 137.539C209.409 137.667 209.55 137.73 209.703 137.73Z" fill="#092740"/>
</g>
<g opacity="0.4">
<path d="M281.234 105.406C281.234 100.071 281.234 97.4034 282.256 95.3585C283.194 93.4815 284.715 91.9597 286.592 91.0218C288.637 90 291.305 90 296.64 90H332.823C338.158 90 340.826 90 342.871 91.0218C344.748 91.9597 346.27 93.4815 347.208 95.3585C348.229 97.4034 348.229 100.071 348.229 105.406V141.589C348.229 146.924 348.229 149.592 347.208 151.637C346.27 153.514 344.748 155.036 342.871 155.974C340.826 156.995 338.158 156.995 332.823 156.995H296.64C291.305 156.995 288.637 156.995 286.592 155.974C284.715 155.036 283.194 153.514 282.256 151.637C281.234 149.592 281.234 146.924 281.234 141.589V105.406Z" fill="#B5BEC6"/>
</g>
<g opacity="0.4">
<path d="M99.105 196.402C99.105 191.067 99.105 188.399 100.127 186.354C101.065 184.477 102.586 182.955 104.463 182.017C106.508 180.996 109.176 180.996 114.511 180.996H150.694C156.029 180.996 158.697 180.996 160.742 182.017C162.619 182.955 164.141 184.477 165.079 186.354C166.1 188.399 166.1 191.067 166.1 196.402V232.585C166.1 237.92 166.1 240.588 165.079 242.633C164.141 244.51 162.619 246.031 160.742 246.969C158.697 247.991 156.029 247.991 150.694 247.991H114.511C109.176 247.991 106.508 247.991 104.463 246.969C102.586 246.031 101.065 244.51 100.127 242.633C99.105 240.588 99.105 237.92 99.105 232.585V196.402Z" fill="#B5BEC6"/>
</g>
<g opacity="0.4">
<path d="M190.169 196.402C190.169 191.067 190.169 188.399 191.191 186.354C192.129 184.477 193.651 182.955 195.528 182.017C197.573 180.996 200.24 180.996 205.576 180.996H241.759C247.094 180.996 249.761 180.996 251.806 182.017C253.683 182.955 255.205 184.477 256.143 186.354C257.165 188.399 257.165 191.067 257.165 196.402V232.585C257.165 237.92 257.165 240.588 256.143 242.633C255.205 244.51 253.683 246.031 251.806 246.969C249.761 247.991 247.094 247.991 241.759 247.991H205.576C200.24 247.991 197.573 247.991 195.528 246.969C193.651 246.031 192.129 244.51 191.191 242.633C190.169 240.588 190.169 237.92 190.169 232.585V196.402Z" fill="#B5BEC6"/>
</g>
<g opacity="0.4">
<path d="M281.234 196.402C281.234 191.067 281.234 188.399 282.256 186.354C283.194 184.477 284.715 182.955 286.592 182.017C288.637 180.996 291.305 180.996 296.64 180.996H332.823C338.158 180.996 340.826 180.996 342.871 182.017C344.748 182.955 346.27 184.477 347.208 186.354C348.229 188.399 348.229 191.067 348.229 196.402V232.585C348.229 237.92 348.229 240.588 347.208 242.633C346.27 244.51 344.748 246.031 342.871 246.969C340.826 247.991 338.158 247.991 332.823 247.991H296.64C291.305 247.991 288.637 247.991 286.592 246.969C284.715 246.031 283.194 244.51 282.256 242.633C281.234 240.588 281.234 237.92 281.234 232.585V196.402Z" fill="#B5BEC6"/>
</g>
<rect y="138.5" width="517" height="78.5" fill="url(#paint2_linear_17356_3539)"/>
</g>
<defs>
<linearGradient id="paint0_linear_17356_3539" x1="224" y1="0" x2="345.002" y2="219.827" gradientUnits="userSpaceOnUse">
<stop stop-color="#F1F5FC"/>
<stop offset="1" stop-color="#DFE9F1"/>
</linearGradient>
<linearGradient id="paint1_linear_17356_3539" x1="388.718" y1="795.873" x2="43.8005" y2="32.0877" gradientUnits="userSpaceOnUse">
<stop stop-color="#5C5C5C"/>
<stop offset="1" stop-color="#BBBBBB"/>
</linearGradient>
<linearGradient id="paint2_linear_17356_3539" x1="345" y1="138.5" x2="345" y2="217" gradientUnits="userSpaceOnUse">
<stop stop-color="#E0EAF2" stop-opacity="0"/>
<stop offset="1" stop-color="#D6E3EE"/>
</linearGradient>
<clipPath id="clip0_17356_3539">
<rect width="448" height="216" fill="white"/>
</clipPath>
</defs>
</svg>
