<svg xmlns="http://www.w3.org/2000/svg" width="24" height="24" viewBox="0 0 24 24" fill="none">
    <circle cx="11.75" cy="11.75" r="10.75" fill="#99191E"/>
    <path d="M12.5853 14.842L12.7033 6H11.0593L11.1693 14.842H12.5853Z" fill="white"/>
    <path d="M11.9243 16.6363C11.797 16.627 11.6692 16.6455 11.5498 16.6905C11.4304 16.7355 11.3223 16.806 11.2329 16.897C11.0763 17.0753 10.9932 17.3064 11.0004 17.5435C11.015 17.7241 11.08 17.8969 11.1879 18.0424C11.2958 18.1879 11.4423 18.3002 11.6108 18.3666C11.7793 18.433 11.9631 18.4509 12.1412 18.4181C12.3194 18.3853 12.4847 18.3033 12.6186 18.1812C12.7785 18.0082 12.8638 17.779 12.8559 17.5435C12.8628 17.3055 12.7778 17.0741 12.6186 16.897C12.5284 16.8063 12.4196 16.736 12.2998 16.691C12.18 16.646 12.0519 16.6274 11.9243 16.6363Z" fill="white"/>
</svg>